<svg xmlns="http://www.w3.org/2000/svg" viewBox="0 0 64 64" fill="none">
  <circle cx="32" cy="32" r="30" fill="#C8102E"/>
  <g transform="translate(12, 16)">
    <!-- Stylized crane/bird silhouette -->
    <path d="M8 28 C8 28 12 18 20 14 C24 12 30 12 34 16 C36 18 37 20 38 22 L36 20 C34 17 30 15 26 16 C22 17 18 20 16 24 L14 28 Z" fill="white"/>
    <path d="M20 14 C20 14 22 8 28 6 C30 5.5 32 6 33 7 L30 8 C27 9 24 11 22 13 Z" fill="white"/>
    <path d="M34 16 L38 12 L40 11 L38 14 L36 17 Z" fill="white"/>
    <!-- Wing detail -->
    <path d="M14 22 C16 18 20 15 26 14 C30 13.5 34 15 36 18 L34 16 C31 14 27 13.5 24 15 C20 17 16 20 14 24 Z" fill="rgba(255,255,255,0.6)"/>
  </g>
</svg>
